<svg id="レイヤー_1" data-name="レイヤー 1" xmlns="http://www.w3.org/2000/svg" viewBox="0 0 1920 1080"><defs><style>.cls-1{fill:#3b2722;}.cls-2{fill:#8eaf4a;}.cls-3{fill:#6eaa7f;}.cls-4{fill:#7cc9cb;}.cls-5{fill:#ffdd1e;}.cls-6{fill:#cad800;}.cls-7{fill:#ea6366;}.cls-8{fill:#6c5752;}.cls-9{font-size:25.17px;fill:#fff;font-family:07NikumaruFont-83pv-RKSJ-H, "07NikumaruFont";}</style></defs><rect class="cls-1" width="1920" height="1080"/><path class="cls-2" d="M0,694.88s305.56,125.67,545.71,67.43,441.43-137.86,769.86-26S1920,712.17,1920,712.17v300.3H0Z"/><path class="cls-3" d="M0,883.63s355,128,542.17,61.6S889,827.11,1195.5,898.36s686.21,59.46,724.5,15.35v166.2H0Z"/><path class="cls-4" d="M1621.74,561.83A24.8,24.8,0,1,0,1597,586.64,24.79,24.79,0,0,0,1621.74,561.83Z"/><path class="cls-5" d="M1660.91,652.12a24.81,24.81,0,1,0-24.8,24.81A24.8,24.8,0,0,0,1660.91,652.12Z"/><path class="cls-4" d="M1541.23,691.48a24.8,24.8,0,1,0-24.78,24.81A24.78,24.78,0,0,0,1541.23,691.48Z"/><path class="cls-5" d="M1561.91,549.56a24.8,24.8,0,1,0-24.81,24.8A24.81,24.81,0,0,0,1561.91,549.56Z"/><path class="cls-4" d="M1488.3,617.64a24.8,24.8,0,1,0-24.79,24.81A24.78,24.78,0,0,0,1488.3,617.64Z"/><path class="cls-6" d="M1501.46,567.86a15.95,15.95,0,1,0-16,15.94A16,16,0,0,0,1501.46,567.86Z"/><path class="cls-6" d="M1645.51,601.07A16,16,0,1,0,1629.58,617,15.94,15.94,0,0,0,1645.51,601.07Z"/><path class="cls-7" d="M1536.21,608a21.35,21.35,0,1,0-21.33,21.36A21.35,21.35,0,0,0,1536.21,608Z"/><path class="cls-6" d="M1616.52,685.19a21.36,21.36,0,1,0-21.35,21.35A21.36,21.36,0,0,0,1616.52,685.19Z"/><path class="cls-4" d="M1614.27,622.21a15.95,15.95,0,1,0-16,15.94A16,16,0,0,0,1614.27,622.21Z"/><path class="cls-7" d="M1582.76,593.87a15.94,15.94,0,1,0-15.94,16A15.93,15.93,0,0,0,1582.76,593.87Z"/><path class="cls-7" d="M1486.72,672.58a15.94,15.94,0,1,0-16,15.95A15.94,15.94,0,0,0,1486.72,672.58Z"/><path class="cls-6" d="M1518.22,650.56a15.95,15.95,0,1,0-16,15.93A16,16,0,0,0,1518.22,650.56Z"/><path class="cls-8" d="M1552.06,602.85l-.86,3.33c-3.64,29.59-3.56,58-4.78,87-1,22.39-1.9,44.75-3.13,67.12q-1.33,24.16-2.7,48.26-.64,11.53-1.29,23.06c0,.12,0,.25,0,.37H1561c-.21-6.17-.43-12.3-.64-18.46q-.79-22.62-1.58-45.22-1.83-51.93-3.62-103.85c-.32-9.6-1-19.26-1-28.86-.23-6.93-.55-13.88-.87-20.82A111.21,111.21,0,0,0,1552.06,602.85Z"/><polygon class="cls-8" points="1551.7 622.5 1522.64 608.82 1552.57 631.91 1551.7 622.5"/><polygon class="cls-8" points="1550.36 665.25 1509.33 641.32 1547.8 677.23 1550.36 665.25"/><polygon class="cls-8" points="1548.82 708.7 1497.74 675.04 1497.46 676.22 1547.35 721.99 1548.82 708.7"/><polygon class="cls-8" points="1551.75 622.5 1580.82 608.82 1550.91 631.91 1551.75 622.5"/><polygon class="cls-8" points="1553.08 665.25 1594.13 641.32 1555.65 677.23 1553.08 665.25"/><polygon class="cls-8" points="1554.63 708.7 1605.69 675.04 1605.99 676.22 1556.1 721.99 1554.63 708.7"/><text class="cls-9" transform="matrix(0.64, 0.72, -0.75, 0.66, 1398.39, 666.04)">K</text><text class="cls-9" transform="matrix(0.69, 0.68, -0.7, 0.71, 1411.95, 681.3)">A</text><text class="cls-9" transform="matrix(0.74, 0.62, -0.64, 0.77, 1426.6, 695.52)">K</text><text class="cls-9" transform="matrix(0.78, 0.57, -0.59, 0.81, 1442.33, 708.42)">I</text><text class="cls-9" transform="translate(1452.55 715.91) rotate(31.66) scale(0.96 1)">H</text><text class="cls-9" transform="translate(1470.74 726.91) rotate(25.47) scale(0.96 1)">A</text><text class="cls-9" transform="translate(1489.72 735.71) rotate(18.57) scale(0.96 1)">R</text><text class="cls-9" transform="translate(1509.3 742.05) rotate(10.89) scale(0.96 1)">A</text><text class="cls-9" transform="matrix(0.96, 0.02, -0.02, 1, 1530.47, 746.06)">　</text><text class="cls-9" transform="translate(1558.91 745.74) rotate(-7.91) scale(0.96 1)"> </text><text class="cls-9" transform="translate(1574.66 743.44) rotate(-14.72) scale(0.96 1)">T</text><text class="cls-9" transform="translate(1594.07 738.05) rotate(-21.45) scale(0.96 1)">S</text><text class="cls-9" transform="translate(1611.29 731.12) rotate(-27.47) scale(0.96 1)">U</text><text class="cls-9" transform="translate(1629.45 721.43) rotate(-32.75) scale(0.96 1)">B</text><text class="cls-9" transform="translate(1645.26 711.12) rotate(-37.26) scale(0.96 1)">A</text><text class="cls-9" transform="translate(1661.33 698.7) rotate(-41.06) scale(0.96 1)">S</text><text class="cls-9" transform="matrix(0.69, -0.67, 0.7, 0.72, 1674.86, 686.82)">A</text></svg>